# xmcd CD database file
#
# Track frame offsets:
#	150
#	13450
#	28787
#	42725
#	56625
#	69697
#	82512
#	97062
#	108725
#	123277
#
# Disc length: 1885 seconds
#
# Revision: 1
# Processed by: cddbd v1.4PL0 Copyright (c) Steve Scherf et al.
# Submitted via: CDex 1.51
#
DISCID=8c075b0a
DTITLE=Tanya Tucker - Greatest Hits Encore
DYEAR=1990
DGENRE=Country
TTITLE0=San Antonio Stroll
TTITLE1=Delta Dawn
TTITLE2=Don't Believe My Heart Can Stand Another You
TTITLE3=The Jamestown Ferry
TTITLE4=Here's Some Love
TTITLE5=Would You Lay With Me (In A Field Of Stone)
TTITLE6=Blood Red And Going Down
TTITLE7=Pecos Promenade
TTITLE8=What's Your Mama's Name Child
TTITLE9=Texas (When I Die)
EXTD=YEAR: 1990
EXTT0=
EXTT1=
EXTT2=
EXTT3=
EXTT4=
EXTT5=
EXTT6=
EXTT7=
EXTT8=
EXTT9=
PLAYORDER=
